<svg xmlns="http://www.w3.org/2000/svg" viewBox="0 0 46 52"><path d="M13.08 3.73c.2 0 .36.12.52 0s.5.08.65.08c0 .34.62-.07.7-.2s.2-.1.24-.16a1 1 0 0 1 .2-.29c.06-.06.1-.12.16-.18a2.68 2.68 0 0 0 .27-.45 4.88 4.88 0 0 1 .75-.81c.14-.1.5-.6.62-.74s.9.62 1 .53.33.34.5.53a1.79 1.79 0 0 1 .22.34c.28 0 .3.14.5.27s.4.14.6.3.25.32.6.26a4.54 4.54 0 0 1 .91-.07c0 .17.06.2.1.33s0 .24.05.34a2.55 2.55 0 0 0 .36.56c.15.22.13.35.35.48a9.91 9.91 0 0 0 1.6.87 2.46 2.46 0 0 1 .38.14c.1.05.15.15.27.18s.58 0 .85 0a2.66 2.66 0 0 1 .69.08c.3.12.12.3.3.54s.08 0 .24.1.15.13.24.22.07.17.2.2.26-.1.4-.06a.41.41 0 0 1 .31.39c0 .18-.12.2-.18.35a1.92 1.92 0 0 0 0 .54 1.78 1.78 0 0 1-.14.37 2.33 2.33 0 0 0 0 .59h.54a5.12 5.12 0 0 0 .78.15h1.4c.17 0 .3 0 .42.08s.1.25.2.32.25 0 .36 0a2.06 2.06 0 0 1 .33.17c.23.1.5.16.73.26a.88.88 0 0 0 .64 0 4.1 4.1 0 0 1 .49-.06 1.27 1.27 0 0 0 .39-.18c.38-.16.42.12.75.24a2.49 2.49 0 0 0 .82 0c.32 0 .4-.05.45-.35a2.35 2.35 0 0 1 .07-.54c.1-.15.34-.1.5-.22s.2-.24.5-.24.42.22.7.27.38 0 .56.16.15.2.4.2.24.06.4.27a3.08 3.08 0 0 0 .44.5 1.75 1.75 0 0 1 .46.44c0 .08 0 .2.1.3s.23.15.33.24.23.28.55.3a3.51 3.51 0 0 1 .8.07c.1 0 .12.16.2.23s.2.1.36.15.16.14.28.22a1.4 1.4 0 0 0 .4.11 6.39 6.39 0 0 1 1.44.58c.1.07.4.22.25.4s-.43 0-.55 0a1.85 1.85 0 0 1-.66 0 1.81 1.81 0 0 0-.61-.1c0 .78.5 1.25.9 1.8.1.12.16.27.25.4s.23.22.33.35.38.42.33.74c-.43 0 0 .6.05.74a5.63 5.63 0 0 1 .08.61c.08.42.4 1 .3 1.46 0 .23-.2.24-.43.25s-.28-.1-.5-.18c-.4-.14-.66.4-.76.72a4.57 4.57 0 0 0 0 .52c0 .13-.1.24-.12.37a3.83 3.83 0 0 0-.12 1c-.34.17-.14.6-.2.92s-.15.27-.2.44a2.35 2.35 0 0 1-.09.6c-.1.2-.3.3-.44.5s-.35.6-.52.9a5.07 5.07 0 0 1-1 1.39 3.18 3.18 0 0 0-.63.48.74.74 0 0 0-.14.41c0 .26 0 .17-.2.28s-.22.3-.37.4-.12 0-.17 0 0 .07-.07.1a1.83 1.83 0 0 0-.43.36 2.06 2.06 0 0 1-.4.53 4.71 4.71 0 0 0-.56.44c-.22.22-.53.32-.77.52s-.33.56-.57.64-.32 0-.45 0a.71.71 0 0 0-.27.22c-.17.18-.44.32-.6.48s0 .18-.1.3a.78.78 0 0 1-.29.28 5.79 5.79 0 0 1-.71.21 4.68 4.68 0 0 0-.66.37c-.23.15-.53.14-.8.28a1.18 1.18 0 0 1-.71.12c-.4 0-.46.14-.75.32s-.5.2-.73.32a2.13 2.13 0 0 1-.61.12c-.22 0-.4.2-.63.25a3.66 3.66 0 0 0-.62.25c-.22.1-.46.06-.67.15s-.36.32-.6.4-.53.08-.8.15a4.78 4.78 0 0 0-.75.27c-.2.1-.32.32-.5.42s-.23 0-.33.05-.08.18-.13.24-.14 0-.3.12-.1.1-.16.27c-.13.34-.27.17-.45.4s0 .2-.1.28-.23 0-.36.07c-.3 0-.38.1-.47.4s-.17.17-.38.34c-.48.4.46.82.1 1.18-.07.08-.44.07-.55.07-.34 0-.37-.24-.57-.44-.45-.45-.68.68-.8 1s-.06.52-.14.78-.2.27-.35.4a1 1 0 0 0-.31.65c0 .47-.25.84-.26 1.33a1.65 1.65 0 0 1-.07.67l-.2.5c0 .1-.1.18-.14.28s0 .26 0 .38a5 5 0 0 0-.26.71 5.39 5.39 0 0 0-.05 1 3.28 3.28 0 0 1-.13.75c-.05.2-.06.5-.2.64s-.38.18-.54.32-.42.16-.6.32a2.16 2.16 0 0 0-.35.63 4.67 4.67 0 0 0-.45.93c0 .2.06.46 0 .66s-.32.2-.52.07a1.64 1.64 0 0 0-.69-.29l-.84-.15a1.21 1.21 0 0 1-.25-.08c-.2-.06-.14 0-.22-.2s-.1-.42-.34-.6-.37-.1-.5-.2a1.7 1.7 0 0 1-.26-.5 2 2 0 0 1-.08-.81c0-.2.05-.5-.1-.66s-.34-.12-.48-.25-.08-.14-.12-.18-.36-.45-.6-.47-.38.24-.6.37a1.36 1.36 0 0 1-.63.12c-.22-.07-.3-.43-.5-.57s-.5-.1-.82-.06c-.5.06-.5-.7-.93-.8a.85.85 0 0 0-1 .55s-.08.1-.1.15 0 .3 0 .4-.34.12-.5.17c-.34.08-.7.13-.87-.24a1 1 0 0 1-.09-.62c0-.1.25-.2.35-.32s.5-.44.5-.76h-.74c-.24 0-.17-.14-.27-.38 0-.07-.13-.1-.15-.2s0-.2 0-.3-.1-.43 0-.62.3-.15.48-.2a4.44 4.44 0 0 1 .52-.15c.5-.06 1 0 1.24-.54a2.22 2.22 0 0 0 .06-.93 1.83 1.83 0 0 1-.26-.21.69.69 0 0 1 0-.4 2.28 2.28 0 0 0 0-.86c0-.1-.08-.23-.1-.34s0-.3 0-.42-.48-.34-.5-.7a.72.72 0 0 1 .22-.49 2 2 0 0 1 .47-.14h.26c.07 0 .07-.32.27-.4s.43.07.57-.17 0-.46.1-.67.22-.4.4-.45.23 0 .33 0 .24-.1.3-.1.35-.93.12-1.13.14-.34.07-.5.4-.73.27-.82.92-1.24-.22-1.5c-.14 0 .28-1.84.14-1.85s-.07-2.1-.2-2c-.8.4-.43.4-.37.74s-.42.32-.52.42-.1.56-.26.64-.1.78-.25.77c-.7 0-.48 1.46-.46.9 0-.24-.76.67-.63.52s-.28.9-.42.7-.1.4-.3.4c-.4 0-.4-.1-.6-.4s-.53-.16-.57-.4c0-.07-.1 0-.12-.14s-.13-.1-.2-.15-.3-.17-.43-.3-.1-.25-.18-.43-.34-.26-.43-.4c-.2-.33-.23-.36-.6-.43a1.49 1.49 0 0 1-.86-.32 4.15 4.15 0 0 0-.83-.52c-.26-.16-.27-.25-.38-.5s-.4-.16-.35-.35.75.2.86.16a3.8 3.8 0 0 0 1-.69c-.13-.18.17-.3.13-.54s.18-.45.13-.78a7.82 7.82 0 0 0-.13-.84c-.05-.17-.3-.43-.27-.6s-.22-.5-.3-.78h.08c0-.22-.1-.34-.16-.54s.07-.18.1-.33a2.59 2.59 0 0 1 .42-.58c.16-.22 0-.6 0-.9a1.31 1.31 0 0 0-.29-.78 1.06 1.06 0 0 1-.3-.56 1.75 1.75 0 0 0-.21-.39c-.08-.13 0-.2-.1-.36s-.2-.28 0-.6.23-.2.37-.36a1.69 1.69 0 0 1 .65-.36c.26-.1.82.14 1 0s.37-.6.62-.8 0-.5.14-.63.2 0 .18-.18.36-1 .42-1.13S4.84 15.1 5 15s.54-.2.64-.4.08-.4.18-.6.2-.4.42-.42.3.12.46-.05.22-.28.37-.4.24-.3.4-.56.32-.08.5-.23.08-.2.1-.3a2.36 2.36 0 0 0 0-.27c.05-.27.18-.1.36-.3a.61.61 0 0 0 .15-.51c0-.1-.1-.1-.1-.23a1.53 1.53 0 0 1 0-.37c0-.2-.15-1 0-.72a7.47 7.47 0 0 1 .36 1.07c.32.08.27-.62.2-.72-.2-.26-.35-.17-.4-.5a3.17 3.17 0 0 0-.28-.62c0-.12-.1-.1-.1-.24s.07-.22.1-.33a4.17 4.17 0 0 1 .07-.54c0-.1.1-.14.07-.27s-.23-.24-.33-.4-.25-.58-.15-.8 0-.23 0-.3.25-.06.23-.2c0-.3.6-.57.8-.64A1.92 1.92 0 0 0 9.4 5c.17-.12.34-.1.5-.2s.1-.15.15-.2a.88.88 0 0 1 .35-.1 1.78 1.78 0 0 1 .45-.08c.2 0 .4.14.63.15s.5-.14.78-.36.14-.22.33-.22.3-.24.5-.27z" fill="none" stroke="#fff" stroke-linejoin="round" stroke-width="2"/><path d="M19.5 22.08a2.37 2.37 0 1 1 2.26-2.37 2.32 2.32 0 0 1-2.26 2.37zm0-7.08a4.61 4.61 0 0 0-4.5 4.71c0 3.22 4 8 4.2 8.15a.39.39 0 0 0 .6 0c.17-.2 4.2-4.93 4.2-8.15A4.61 4.61 0 0 0 19.5 15z" fill-rule="evenodd" fill="#fff"/></svg>