<svg xmlns="http://www.w3.org/2000/svg" xmlns:xlink="http://www.w3.org/1999/xlink" width="90" height="80"><defs><path id="A" d="M42 71.7l-4-9L31.7 42 42 40l20.3 9.7L60 .3H1.3L.1 69.6z"/></defs><g fill="none" fill-rule="evenodd"><g fill="#000"><path d="M76.4 70l-7.6-7.6 5.5-3c.4-.2.7-.7.6-1.2a1.3 1.3 0 0 0-.8-1.1L49.8 47a1.3 1.3 0 0 0-1.4.3 1.3 1.3 0 0 0-.3 1.4L57.8 73a1.3 1.3 0 1 0 2.3.2l3-5.5 7.7 7.6c.2.2.6.4 1 .4a1.3 1.3 0 0 0 .9-.4l3.7-3.7a1.3 1.3 0 0 0 0-1.8zm-42-58H26v8.5a4.5 4.5 0 0 0 4.5 4.5H39v-8.5a4.5 4.5 0 0 0-4.5-4.5zm2.5 8.5a2.5 2.5 0 0 1-2.5 2.5 2.5 2.5 0 0 1-2-.9 2.5 2.5 0 0 1-2 .9 2.5 2.5 0 0 1 0-5.1H32v-1.4a2.5 2.5 0 0 1 2.5-2.5 2.5 2.5 0 0 1 2.5 2.5c0 .8-.4 1.5-1 2 .6.5 1 1.2 1 2zM34.5 19H33v1.5a1.5 1.5 0 1 0 1.5-1.5zM29 20.5a1.5 1.5 0 1 0 3 0V19h-1.5a1.5 1.5 0 0 0-1.5 1.5zm5.5-5.5a1.5 1.5 0 0 0-1.5 1.5V18h1.5a1.5 1.5 0 1 0 0-3z" fill-rule="nonzero"/><path d="M26 30h36v2H26zm0 5h36v2H26zm0 5h36v2H26z"/></g><g transform="translate(13 4)"><mask id="B" fill="#fff"><use xlink:href="#A"/></mask><rect stroke="#000" stroke-width="4" mask="url(#B)" x="7" y="4" width="49" height="63" rx="4"/></g><path d="M60 13.3a.6.6 0 0 0-.5-.3h-7.2a.6.6 0 0 0-.5.3L50 17a.6.6 0 0 0-.1.3 2.4 2.4 0 0 0 1.2 2.1v5a.6.6 0 0 0 .6.6h8.4a.6.6 0 0 0 .6-.6v-5a2.4 2.4 0 0 0 1.2-2.1.6.6 0 0 0-.1-.3L60 13.3zm.7 4a1.2 1.2 0 0 1-2.4-.1c0 0 0-.1 0-.1h0l-.5-3h1.3l1.6 3zm-5.5-3h1.4l.5 3a1.2 1.2 0 0 1-1.2 1.2 1.2 1.2 0 0 1-1.2-1.2l.5-3zm-2.5 0H54l-.5 3c0 0 0 .1 0 .1a1.2 1.2 0 0 1-1.2 1.2 1.2 1.2 0 0 1-1.2-1.1l1.6-3zm2 9.6V22h2.4v1.8h-2.4zm4.8 0h-1.2v-2.4a.6.6 0 0 0-.6-.6h-3.6a.6.6 0 0 0-.6.6v2.4h-1.2v-4.2a2.4 2.4 0 0 0 1.8-.8 2.4 2.4 0 0 0 3.6 0 2.4 2.4 0 0 0 1.8.8v4.2z" fill="#000" fill-rule="nonzero"/></g></svg>