<svg xmlns="http://www.w3.org/2000/svg" width="90" height="80"><path d="M78.35 22.913L57.864 40.165l20.486 18.62V22.913zm-.913-4.253h-62.05c-.536 0-1.265-.01-1.836.114l31.95 27L77.677 18.66h-.24zM12.65 59.423L33.306 40.28 12.65 22.833v36.6zm64.537 3.227l-22.14-20.114-8.35 7.036a1.837 1.837 0 0 1-2.394 0l-8.18-6.9-21.4 19.783c.24.114.468.205.662.205h61.8zm.25 3.66h-62.05C12.365 66.3 9 62.958 9 59.925v-40.34C9 16.55 12.285 15 15.308 15h62.13C80.46 15 82 16.55 82 19.584V59.9c0 3.044-1.54 6.42-4.563 6.42z"/></svg>