<svg xmlns="http://www.w3.org/2000/svg" width="90" height="80" fill="none" fill-rule="evenodd"><rect x="13" y="8" width="64" height="64" rx="4" stroke="#000" stroke-width="4"/><g fill="#000"><path d="M27 41h36v2H27zm0 6h36v2H27zm0 6h36v2H27zm0 6h36v2H27z"/><path d="M35.48 20H27v8.476A4.52 4.52 0 0 0 31.52 33H40v-8.476A4.52 4.52 0 0 0 35.48 20zM38 28.466A2.534 2.534 0 0 1 35.47 31a2.522 2.522 0 0 1-1.97-.946 2.514 2.514 0 0 1-1.97.946 2.532 2.532 0 0 1 0-5.063h1.406v-1.403A2.538 2.538 0 0 1 35.47 22 2.534 2.534 0 0 1 38 24.534c0 .794-.367 1.503-.943 1.966.576.463.943 1.172.943 1.966zM35.5 27H34v1.497A1.5 1.5 0 1 0 35.5 27zM30 28.497c0 .83.676 1.503 1.5 1.503a1.5 1.5 0 0 0 1.5-1.503V27h-1.5c-.824 0-1.5.673-1.5 1.497zM35.5 23a1.5 1.5 0 0 0-1.5 1.503V26h1.5a1.5 1.5 0 1 0 0-3z" fill-rule="nonzero"/></g></svg>