<svg xmlns="http://www.w3.org/2000/svg" width="61" height="70" fill="#c5c5c5" fill-rule="evenodd"><path d="M9 28.3h2a1.35 1.35 0 0 0 1.34-1.37v-2.05A1.35 1.35 0 0 0 11 23.52H9a1.35 1.35 0 0 0-1.35 1.36v2.05A1.36 1.36 0 0 0 9 28.3zm0 8.2h2a1.35 1.35 0 0 0 1.34-1.36v-2A1.35 1.35 0 0 0 11 31.72H9a1.36 1.36 0 0 0-1.35 1.37v2A1.35 1.35 0 0 0 9 36.5zm0 8.2h2a1.36 1.36 0 0 0 1.34-1.37V41.3A1.35 1.35 0 0 0 11 39.92H9a1.36 1.36 0 0 0-1.35 1.37v2.05A1.36 1.36 0 0 0 9 44.71zm3.36 6.83v-2A1.36 1.36 0 0 0 11 48.12H9a1.36 1.36 0 0 0-1.35 1.37v2A1.36 1.36 0 0 0 9 52.91h2a1.35 1.35 0 0 0 1.36-1.37zm3.7-23.24h2a1.36 1.36 0 0 0 1.35-1.37v-2.05a1.35 1.35 0 0 0-1.35-1.36h-2a1.36 1.36 0 0 0-1.35 1.36v2.05a1.36 1.36 0 0 0 1.35 1.37zm0 8.2h2a1.35 1.35 0 0 0 1.35-1.36v-2a1.36 1.36 0 0 0-1.35-1.37h-2a1.36 1.36 0 0 0-1.35 1.37v2a1.36 1.36 0 0 0 1.35 1.36zm0 8.2h2a1.36 1.36 0 0 0 1.35-1.37V41.3a1.36 1.36 0 0 0-1.35-1.37h-2a1.36 1.36 0 0 0-1.35 1.37v2.05c0 .75.6 1.36 1.35 1.37zm0 8.2h2a1.36 1.36 0 0 0 1.35-1.37v-2a1.36 1.36 0 0 0-1.35-1.37h-2a1.37 1.37 0 0 0-1.35 1.37v2a1.36 1.36 0 0 0 1.35 1.37zm7.05-24.6h2a1.35 1.35 0 0 0 1.34-1.37v-2.05a1.35 1.35 0 0 0-1.34-1.36h-2a1.35 1.35 0 0 0-1.34 1.36v2.05a1.35 1.35 0 0 0 1.34 1.37zm0 8.2h2a1.35 1.35 0 0 0 1.34-1.36v-2a1.35 1.35 0 0 0-1.34-1.37h-2a1.35 1.35 0 0 0-1.34 1.37v2a1.35 1.35 0 0 0 1.34 1.36zm0 8.2h2a1.36 1.36 0 0 0 1.34-1.37V41.3a1.35 1.35 0 0 0-1.34-1.37h-2a1.35 1.35 0 0 0-1.34 1.37v2.05a1.36 1.36 0 0 0 1.34 1.37zm0 8.2h2a1.35 1.35 0 0 0 1.34-1.37v-2a1.36 1.36 0 0 0-1.34-1.37h-2a1.36 1.36 0 0 0-1.34 1.37v2a1.35 1.35 0 0 0 1.34 1.37zm12.76-24.6h2a1.35 1.35 0 0 0 1.34-1.37v-2.05a1.35 1.35 0 0 0-1.34-1.36h-2a1.35 1.35 0 0 0-1.34 1.36v2.05a1.35 1.35 0 0 0 1.34 1.37zm0-8.2h2a1.35 1.35 0 0 0 1.34-1.37v-2.05a1.36 1.36 0 0 0-1.34-1.37h-2a1.36 1.36 0 0 0-1.34 1.37v2.05a1.35 1.35 0 0 0 1.34 1.37zm0-8.2h2a1.36 1.36 0 0 0 1.34-1.37v-2a1.35 1.35 0 0 0-1.34-1.37h-2a1.35 1.35 0 0 0-1.34 1.37v2a1.36 1.36 0 0 0 1.34 1.37zm0 24.6h2a1.35 1.35 0 0 0 1.34-1.36v-2a1.35 1.35 0 0 0-1.34-1.37h-2a1.35 1.35 0 0 0-1.34 1.37v2a1.35 1.35 0 0 0 1.34 1.36zm0 8.2h2a1.36 1.36 0 0 0 1.34-1.37V41.3a1.35 1.35 0 0 0-1.34-1.37h-2a1.35 1.35 0 0 0-1.34 1.37v2.05a1.36 1.36 0 0 0 1.34 1.37zm0 8.2h2a1.35 1.35 0 0 0 1.34-1.37v-2a1.36 1.36 0 0 0-1.34-1.37h-2a1.36 1.36 0 0 0-1.34 1.37v2a1.35 1.35 0 0 0 1.34 1.37zm7.06-24.6h2a1.35 1.35 0 0 0 1.34-1.37v-2.05a1.35 1.35 0 0 0-1.34-1.36h-2a1.35 1.35 0 0 0-1.35 1.36v2.05a1.36 1.36 0 0 0 1.35 1.37zm0-8.2h2a1.35 1.35 0 0 0 1.34-1.37v-2.05a1.36 1.36 0 0 0-1.34-1.37h-2a1.36 1.36 0 0 0-1.35 1.37v2.05a1.36 1.36 0 0 0 1.35 1.37zm0-8.2h2a1.36 1.36 0 0 0 1.34-1.37v-2a1.35 1.35 0 0 0-1.34-1.37h-2a1.36 1.36 0 0 0-1.35 1.37v2a1.36 1.36 0 0 0 1.35 1.37zm0 24.6h2a1.35 1.35 0 0 0 1.34-1.36v-2a1.35 1.35 0 0 0-1.34-1.37h-2a1.36 1.36 0 0 0-1.35 1.37v2a1.35 1.35 0 0 0 1.35 1.36zm0 8.2h2a1.36 1.36 0 0 0 1.34-1.37V41.3a1.35 1.35 0 0 0-1.34-1.37h-2a1.36 1.36 0 0 0-1.35 1.37v2.05a1.36 1.36 0 0 0 1.35 1.37zm0 8.2h2a1.35 1.35 0 0 0 1.34-1.37v-2a1.36 1.36 0 0 0-1.34-1.37h-2a1.36 1.36 0 0 0-1.35 1.37v2a1.36 1.36 0 0 0 1.35 1.37zM50 28.3h2a1.36 1.36 0 0 0 1.35-1.37v-2.05A1.35 1.35 0 0 0 52 23.52h-2a1.35 1.35 0 0 0-1.34 1.36v2.05A1.35 1.35 0 0 0 50 28.3zm0-8.2h2a1.36 1.36 0 0 0 1.35-1.37v-2.05A1.36 1.36 0 0 0 52 15.31h-2a1.36 1.36 0 0 0-1.34 1.37v2.05A1.35 1.35 0 0 0 50 20.1zm0-8.2h2a1.36 1.36 0 0 0 1.35-1.37v-2A1.36 1.36 0 0 0 52 7.11h-2a1.35 1.35 0 0 0-1.34 1.37v2A1.36 1.36 0 0 0 50 11.9zm0 24.6h2a1.35 1.35 0 0 0 1.35-1.36v-2A1.36 1.36 0 0 0 52 31.72h-2a1.35 1.35 0 0 0-1.34 1.37v2A1.35 1.35 0 0 0 50 36.5zm0 8.2h2a1.36 1.36 0 0 0 1.35-1.37V41.3A1.36 1.36 0 0 0 52 39.92h-2a1.35 1.35 0 0 0-1.34 1.37v2.05A1.36 1.36 0 0 0 50 44.71zm0 8.2h2a1.36 1.36 0 0 0 1.35-1.37v-2A1.36 1.36 0 0 0 52 48.12h-2a1.36 1.36 0 0 0-1.34 1.37v2A1.35 1.35 0 0 0 50 52.91z" fill-rule="nonzero"/><path d="M56 67.27h-2.66v-6.84A1.36 1.36 0 0 0 52 59.06h-8.07a1.36 1.36 0 0 0-1.34 1.37v6.84H31.84v-2.74h2.83a1.37 1.37 0 0 0 0-2.73h-2.83V2.73H56v64.54zm-10.74 0V61.8h5.37v5.47h-5.37zm-26.87 0V61.8h5.37v5.47H18.4zM5 64.53h2.8a1.37 1.37 0 0 0 0-2.73H5v-41h24.16v46.47h-2.7v-6.84a1.36 1.36 0 0 0-1.34-1.37h-8.06a1.36 1.36 0 0 0-1.35 1.37v6.84H5v-2.74zm54.7 2.74h-.95V1.37A1.35 1.35 0 0 0 57.37 0H30.5a1.35 1.35 0 0 0-1.34 1.37v16.68H3.63a1.35 1.35 0 0 0-1.34 1.36v47.86h-.95a1.37 1.37 0 0 0 0 2.73h58.32a1.37 1.37 0 0 0 0-2.73h.03z"/></svg>