<svg xmlns="http://www.w3.org/2000/svg" viewBox="0 0 47 52" fill="none" stroke="#fff" stroke-linejoin="round" stroke-width="2"><path d="M29 46h14.2a2.8 2.8 0 0 0 2.8-2.8v-2.8c-3.3-7-8.4-8.4-8.4-8.4h-2.8a5.6 5.6 0 0 1-5.6-5.6v-1.8a14.2 14.2 0 0 0 2.7-5.1c.1-.3.4-.5.6-.7a3.5 3.5 0 0 0 .5-4.2c-.1-.2-.3-.4-.3-.6V9a8.3 8.3 0 0 0-2-5.5 7.8 7.8 0 0 0-4.3-2.2 14 14 0 0 0-6.1.1 7.4 7.4 0 0 0-4.4 3 8.6 8.6 0 0 0-1.4 4.5v5c0 .3-.2.6-.4.8a3.5 3.5 0 0 0 .8 4.3 1.6 1.6 0 0 1 .5.9 13.4 13.4 0 0 0 2.5 4.5v2a5.6 5.6 0 0 1-5.6 5.6H9.4S4.3 33.3 1 40.4v2.8A2.8 2.8 0 0 0 3.8 46H15" stroke-linecap="round"/><path d="M33.7 39L32 37.3a1.2 1.2 0 0 0-1.7 0l-8 7.7-3.6-3.5a1.2 1.2 0 0 0-1.7 0l-1.7 1.6a1.1 1.1 0 0 0 0 1.6l6.1 6a1.2 1.2 0 0 0 .8.3 1.1 1.1 0 0 0 .8-.3l10.6-10a1.1 1.1 0 0 0 0-1.6z"/></svg>