<?xml version="1.0" encoding="utf-8"?>
<!-- Generator: Adobe Illustrator 22.0.1, SVG Export Plug-In . SVG Version: 6.00 Build 0)  -->
<svg version="1.1" id="Capa_1" xmlns="http://www.w3.org/2000/svg" xmlns:xlink="http://www.w3.org/1999/xlink" x="0px" y="0px"
	 viewBox="0 0 130 130" style="enable-background:new 0 0 130 130;" xml:space="preserve">
<style type="text/css">
	.st0{fill:#009CEB;}
	.st1{fill:#FFFFFF;}
</style>
<path class="st0" d="M0,0h130v130H0V0z"/>
<g>
	<path class="st1" d="M77.6,23.7h-53v53c0,15.6,12.6,28.3,28.3,28.3h53V52C105.8,36.4,93.2,23.7,77.6,23.7z M93.5,76.7
		c0,8.8-7.1,15.9-15.9,15.9c-5,0-9.4-2.3-12.4-5.9c-2.9,3.6-7.4,5.9-12.4,5.9c-8.8,0-15.9-7.1-15.9-15.9c0-8.8,7.1-15.9,15.9-15.9
		h8.8V52c0-8.8,7.1-15.9,15.9-15.9c8.8,0,15.9,7.1,15.9,15.9c0,5-2.3,9.4-5.9,12.4C91.2,67.2,93.5,71.7,93.5,76.7z M77.6,67.9h-8.8
		v8.8c0,4.9,4,8.8,8.8,8.8c4.9,0,8.8-4,8.8-8.8C86.4,71.8,82.4,67.9,77.6,67.9z M44,76.7c0,4.9,4,8.8,8.8,8.8c4.9,0,8.8-4,8.8-8.8
		v-8.8h-8.8C48,67.9,44,71.8,44,76.7z M77.6,43.1c-4.9,0-8.8,4-8.8,8.8v8.8h8.8c4.9,0,8.8-4,8.8-8.8C86.4,47.1,82.5,43.1,77.6,43.1z
		"/>
</g>
</svg>
