<svg xmlns="http://www.w3.org/2000/svg" width="130" height="130" fill-rule="evenodd"><path fill="#009ceb" d="M0 0h130v130H0z"/><path d="M38 55.3h.745v3.003l.104-.308.128-.3.36-.618.23-.308.232-.28.282-.282.308-.252.31-.224.36-.226.36-.168.4-.14.437-.112.464-.085h.488l.59.03.54.083.54.14.463.197.462.252.386.3.385.336.31.393.283.42.257.478.18.507.18.56.102.6.078.618.025.645V68h-.72v-7.3l-.025-.6-.077-.562-.078-.505-.127-.506-.18-.45-.207-.42-.257-.394-.282-.337-.308-.31-.36-.252-.385-.225-.412-.17-.462-.14-.49-.084h-.514l-.488.03-.463.083-.463.112-.41.197-.412.252-.36.282-.36.3-.307.363-.284.394-.256.45-.206.448-.155.506-.128.534-.078.532V68H38zm26.18 6.34v-.055l-.026-.65-.08-.62-.133-.568-.186-.566-.237-.514-.292-.487-.318-.432-.37-.406-.423-.352-.424-.324-.504-.27-.502-.2-.53-.16-.557-.08-.61-.028-.555.027-.584.08-.53.163-.502.216-.478.243-.476.324-.398.352-.397.406-.318.46-.318.485-.238.514-.186.54-.16.568-.08.595-.053.648v.054l.053.595.08.595.16.595.186.54.264.514.292.486.345.432.37.405.424.38.45.296.478.27.53.217.53.16.557.082.555.054.6-.054.556-.082.556-.134.503-.216.477-.244.45-.324.397-.352.37-.378.318-.433.292-.486.237-.514.186-.566.133-.57.08-.622.026-.62zm-10.4 2.73v3.324H53V50h.768v8.837l.186-.405.212-.405.238-.352.24-.352.3-.35.318-.298.318-.297.37-.27.372-.244.424-.188.423-.2.45-.134.45-.082.504-.082h.503l.662.028.608.108.6.162.556.216.556.298.504.35.476.407.425.432.397.513.318.54.265.595.238.623.16.674.105.676.053.757v.054l-.053.702-.106.704-.16.675-.238.622-.265.595-.318.54-.397.486-.425.46-.476.406-.504.35-.556.297-.555.217-.6.16-.61.1-.662.054-.503-.028-.504-.08-.476-.082-.45-.134-.424-.2-.398-.2-.397-.243-.7-.54-.317-.324-.265-.325-.265-.35-.212-.38-.212-.378-.186-.378zm26.37-2.85v-.055l-.026-.63-.084-.604-.14-.576-.22-.548-.25-.52-.333-.493-.36-.467-.388-.412-.443-.383-.5-.33-.527-.274-.554-.22-.58-.164-.6-.083-.665-.027-.64.027-.6.083-.582.165-.554.22-.526.274-.472.33-.416.383-.416.412-.332.467-.304.493-.25.52-.195.548-.138.576-.083.604-.056.63v.055l.056.604.083.603.138.576.222.55.25.52.305.494.36.465.416.412.416.384.5.33.525.273.527.22.582.164.638.083.61.055.666-.055.6-.083.6-.165.555-.22.498-.274.5-.33.443-.384.39-.412.36-.465.305-.494.248-.52.195-.55.14-.576.084-.603.027-.604zM68 61.555V61.5l.055-.713.083-.658.194-.66.222-.63.305-.577.33-.576.418-.52.443-.467.527-.44.554-.355.582-.33.666-.247.664-.193.72-.1.75-.026.777.027.693.1.694.192.636.247.583.3.555.384.526.41.443.495.416.493.332.576.278.576.222.63.194.63.083.685.055.687v.055l-.055.658-.083.687-.194.657-.222.604-.305.603-.305.548-.416.522-.443.493-.526.41-.555.384-.583.33-.666.247-.664.192-.72.1-.777.054-.75-.055-.693-.1-.693-.2-.637-.248-.6-.302-.526-.384-.527-.41-.443-.495-.418-.493-.36-.576-.276-.576-.222-.63-.194-.63-.083-.687-.055-.658zm24.283 1.522v-1.522l-.204-.083-.256-.083-.23-.082-.256-.056-.23-.083-.28-.055-.257-.055-.28-.027-.283-.057-.28-.028-.614-.054-.307-.028H87.63l-.487.055-.434.055-.435.1-.41.138-.36.167-.33.194-.307.222-.282.25-.23.276-.204.277-.154.33-.102.36-.077.36-.026.414v.056l.026.386.077.388.102.332.154.332.178.276.204.277.23.222.284.22.28.167.332.165.334.1.33.11.384.057.358.055.384.027.562-.027.512-.083.51-.1.486-.168.435-.22.4-.22.383-.277.333-.306.306-.332.282-.358.203-.388.18-.414.128-.416.077-.415.025-.442zM83 64.183v-.055l.05-.525.077-.47.13-.444.204-.387.23-.387.28-.332.333-.304.358-.278.4-.248.433-.193.488-.167.486-.1.536-.1.562-.056h1.203l.307.027.306.028.282.027.28.03.28.055.284.028.28.055.256.056.255.083.256.055.23.083.256.082.205.083v-1.41l-.077-.525-.102-.443-.127-.442-.18-.387-.205-.36-.256-.33-.28-.277-.666-.443-.384-.166-.41-.1-.46-.1-.46-.056h-1.05l-.282.027-.28.055-.256.028-.256.056-.256.055-.23.082-.256.084-.256.082-.23.112-.23.082-.23.1-.23.112-.256.138-.257-.692.514-.276.255-.1.28-.11.256-.084.256-.1.256-.084.256-.054.28-.083.283-.055.28-.028.282-.056.28-.027h1.228l.282.027.28.056.282.055.255.056.28.082.23.084.23.1.23.11.23.14.205.137.18.14.205.165.152.194.154.165.128.165.128.195.102.194.103.22.102.222.077.22.076.25.077.25.052.25.05.248.052.277.025.304v.276l.026.332v7.774h-.742v-2.602l-.128.25-.153.277-.18.276-.204.277-.256.276-.255.25-.307.22-.665.442-.384.167-.4.167-.434.11-.46.112-.486.055L87.4 68l-.435-.027-.435-.055-.435-.084-.4-.1-.41-.166-.383-.194-.36-.22-.306-.25-.307-.304-.256-.304-.23-.36-.18-.386-.128-.416-.077-.47-.05-.47zm15-8.93h.787v3.892l.136-.452.217-.423.22-.422.243-.396.27-.366.3-.367.325-.34.353-.3.38-.28.407-.255.435-.198.433-.17.5-.113.488-.056H104v.818h-.135l-.598.028-.543.113-.543.17-.488.252-.462.3-.435.368-.407.394-.353.48-.325.48-.272.535-.244.564-.2.563-.108.62-.083.592-.027.65V68H98zm18.283 6.367v-.054l-.026-.648-.08-.595-.158-.567-.186-.54-.266-.513-.292-.487-.345-.46-.372-.405-.424-.35-.452-.326-.478-.243-.53-.216-.53-.162-.558-.08-.585-.028-.583.027-.558.08-.557.136-.505.216-.477.244-.452.324-.398.352-.372.378-.318.432-.292.486-.24.513-.185.57-.133.566-.08.623-.053.648v.054l.053.62.08.595.133.595.185.54.24.54.292.46.344.46.373.404.397.352.452.324.477.243.505.216.53.162.558.082.583.054.585-.054.584-.082.53-.162.505-.216.478-.27.452-.297.424-.38.398-.405.32-.43.317-.487.24-.514.186-.54.158-.595.08-.595.026-.595zm-11.283 0v-.054l.053-.73.106-.703.16-.674.24-.622.265-.594.345-.54.372-.486.45-.46.452-.406.504-.35.557-.297.557-.216.612-.163.6-.108.637-.027h.53l.505.08.477.083.452.135.425.19.397.2.4.243.345.242.346.298.318.296.53.704.213.35.213.405.158.405V50h.77v17.703h-.77v-3.38l-.16.38-.213.405-.238.38-.24.35-.292.353-.318.297-.32.297-.37.27-.373.243-.424.2-.424.19-.452.134-.45.082-.505.082-.53.026-.638-.054-.6-.108-.612-.162-.557-.216-.557-.298-.504-.35-.452-.405-.45-.433-.372-.514-.345-.54-.265-.595-.24-.62-.16-.677-.106-.676-.053-.73zM20.527 46.448l-.053-.026-.026-.027-.028-.026h-.025l-.026-.027h-.053l-.027-.026h-.395l-.078.026-.078.027-.053.026-.08.053-.052.052-.078.053-.054.052-.027.08-.052.078-.026.053-.026.08v.34l.026.053v.053l.026.052.027.026v.054l.025.05.054.027.027.053.026.026.025.026.053.026.053.054v9.156l.08.422.105.395.158.368.183.368.212.317.236.316.3.288.316.237.316.2.367.185.37.158.394.105.42.08.423.026.394-.026.42-.08.395-.105.37-.158.367-.184.316-.2.317-.238.288-.288.237-.316.2-.317.184-.368.16-.368.104-.395.08-.422.025-.393-.025-.422-.08-.395-.105-.394-.13-.368-.185-.343-.212-.316-.236-.316-.3-.288-.288-.238-.344-.2-.34-.185-.37-.157-.367-.105-.42-.08-.395-.027-.053-.08-.052-.052-.026-.052-.053-.053-.08-.026-.052-.052-.052-.027-.08-.027-.053-.026H23l-.052-.025h-.16l-.078.025-.053.026-.105.027-.08.027-.05.052-.08.053-.052.053-.053.05-.052.08-.026.08-.028.078-.026.08-.027.08v.157l.027.078.026.105v.08l.054.078.026.053.052.08.053.052.08.052.052.053.078.026.08.027.08.026.078.026h.37l.026-.026.053-.026.052-.027.026-.026.053-.026.027-.027.052-.025.027-.027.026-.053.027-.026.025-.026.026-.053.027-.027.027-.052.027-.026.315.026.315.052.316.106.3.13.29.132.237.184.237.2.2.237.2.238.158.263.158.3.105.288.08.316.052.316.026.343-.026.342-.052.314-.105.317-.106.315-.158.3-.158.263-.2.263-.237.2-.237.212-.263.185-.3.156-.315.106-.316.105-.315.052-.342.027-.37-.027-.316-.052-.316-.105-.315-.106-.29-.156-.263-.185-.263-.21-.2-.2-.2-.264-.184-.263-.16-.3-.103-.315-.106-.317-.053-.314v-9.026l.053-.027.053-.026.053-.052.05-.027.053-.052.053-.026.026-.053.053-.053.027-.052.026-.053.026-.08.026-.052v-.13l.026-.052.16-.053.157-.053.184-.026.16-.053.184-.026.183-.027.16-.026.184-.026.185-.027.183-.026h.158l.185-.027h.552l1.05.053 1.027.158 1 .3.947.37.894.446.844.553.79.632.7.7.632.8.553.842.448.895.367.947.3 1 .157 1.026.08 1.08-.027.447-.026.447-.053.42-.052.448-.106.42-.105.42-.106.422-.157.42-.158.395-.185.395-.184.396-.236.393-.237.37-.237.367-.263.37-.263.3-.264.288-.263.263-.3.263-.288.263-.3.237-.316.2-.316.238-.315.185-.315.2-.344.185-.368.157-.342.158-.368.13-.343.132-.525.13-.553.133-.526.08-.554.025-.526.026-.526-.026-.5-.026-.473-.052-.448-.053-.368-.052-.343-.054-.263-.052-.2-.052-.13-.027H20.5l-.737-.263-.343-.158-.342-.157-.34-.185-.317-.2-.34-.185-.317-.237-.3-.2-.288-.238-.3-.263-.29-.263-.263-.263-.264-.288-.236-.3-.3-.37-.236-.366-.237-.37-.237-.393-.185-.396-.184-.395-.158-.394-.158-.42-.2-.845-.107-.42-.05-.447-.053-.42-.027-.447V56l.027-.5.08-.474.08-.5.104-.475.132-.473.157-.447.185-.447.21-.447.2-.448.238-.422.288-.394.263-.395.316-.394.343-.343h.026l.026.027V56.5l.026.763.132.737.184.736.3.684.315.658.42.606.448.552.527.527.552.447.604.42.658.316.685.3.737.184.737.132.8.052.762-.052.737-.132.736-.184.685-.3.658-.315.605-.42.554-.448.526-.527.447-.552.42-.606.316-.658.3-.684.185-.736.13-.737.053-.763-.052-.8-.13-.738-.185-.7-.263-.684-.343-.63-.394-.606-.448-.553-.5-.527-.55-.447-.607-.42-.632-.316-.682-.3-.7-.2-.738-.132-.736-.026-.054-.08-.027-.053-.05-.052-.027-.026-.053-.054-.052-.025-.053-.053-.053-.026-.078-.026L23.13 49h-.053L23 48.974h-.13l-.053.026h-.105l-.08.027-.08.052-.08.027-.05.05-.08.054-.052.078-.053.053-.052.08-.026.078-.028.08-.026.08v.158l.026.105V50l.028.078.026.08.052.05.053.08.05.052.054.053.078.052.053.053.08.027.08.026.078.026.08.026h.184l.106-.052h.053l.052-.026.052-.027.053-.027.027-.026.08-.08.053-.026.025-.052.053-.026.027-.054.027-.05.025-.027.657.027.66.13.63.184.605.264.58.3.526.368.5.42.448.448.393.526.344.527.314.58.238.605.158.658.104.658.053.685-.053.683-.104.685-.184.63-.237.63-.3.58-.368.552-.422.5-.447.474-.5.422-.552.34-.58.316-.632.238-.63.184-.685.105-.683.053-.712-.053-.684-.105-.63-.184-.633-.238-.578-.315-.553-.34-.5-.422-.448-.474-.42-.5-.37-.552-.288-.58-.238-.63-.184-.63-.105-.685-.026-.683v-6.817l.026-.052.027-.027.025-.026.027-.052.026-.027v-.026l.026-.053.028-.026v-.053l.025-.026v-.184l.027-.026-.027-.106v-.08l-.025-.08-.028-.077-.026-.08-.053-.052-.052-.08-.053-.052-.05-.053-.08-.027-.08-.052-.052-.026-.08-.027h-.34l-.078.027-.08.026-.08.052-.052.027-.08.053-.052.052-.053.08-.026.052-.052.08-.026.078-.028.08v.367l.028.027-.37.395-.315.394-.315.448-.3.42-.264.474-.236.447-.237.474-.185.5-.157.5-.158.5-.105.5-.106.527-.052.526-.053.527v1.026l.027.474.052.472.08.448.105.474.105.448.132.473.16.422.182.446.185.42.21.422.237.422.237.394.3.395.288.394.264.3.262.316.3.288.316.3.633.527.34.237.316.237.37.237.34.183.37.2.368.185.368.157.395.133.395.158.684.183.685.132.656.105.633.053h1.132l.5-.053.448-.052.42-.053.343-.078.288-.08.237-.052.185-.08.104-.025h.053l.37-.158.394-.133.37-.157.368-.184.37-.2.34-.184.37-.237.315-.237.342-.237.316-.264.316-.263.315-.3.3-.288.263-.316.3-.3.263-.394.3-.395.236-.394.237-.422.2-.422.185-.42.184-.447.157-.422.133-.473.104-.448.105-.474.08-.448.052-.472.026-.474L34 56.5l-.08-1.158-.183-1.106-.3-1.053-.395-1.026-.5-.973-.604-.895-.66-.843-.763-.763-.84-.658-.896-.605-.973-.5-1.026-.394-1.054-.3-1.104-.184L23.5 46h-.632l-.184.027h-.212l-.2.026-.185.026-.2.026-.183.053-.2.027-.185.052-.2.053-.185.026-.184.053zm75.786 35.617h-2.177v-2.92h2.45l.272.03.22.027.217.056.2.056.163.085.136.084.136.112.1.112.08.14.055.113.055.168.026.14.03.168.027.17-.027.168-.03.14-.026.17-.055.14-.054.14-.11.11-.218.226-.136.084-.2.084-.163.056-.217.056-.246.027-.245.03-.272.028zm-2.177-7.213h2.477l.217.056.19.027.162.056.164.086.136.084.11.083.108.114.082.1.055.114.054.14.055.14v.14l.026.17-.026.14v.14l-.055.112-.054.14-.055.14-.082.113-.108.083-.1.113-.135.084-.164.084-.162.057-.2.056-.218.028-.245.028-.246.027h-1.986v-2.665zm4.327 3.396l.325-.225.164-.112.137-.14.135-.113.1-.14.108-.14.082-.14.082-.168.054-.168.053-.17.055-.168.03-.197v-.196l.026-.196-.026-.337-.056-.336-.054-.3-.11-.28-.136-.28-.164-.225-.2-.253-.245-.195-.27-.17-.3-.17-.355-.14-.38-.112-.436-.056-.5-.056h-4.326v10.777h4.027l.5-.03.46-.056.436-.084.41-.14.354-.14.325-.197.3-.195.246-.253.217-.253.2-.28.137-.28.108-.3.083-.307.054-.337.027-.3-.027-.224v-.196l-.054-.197-.028-.195-.082-.197-.08-.168-.08-.17-.1-.17-.136-.14-.136-.168-.164-.14-.162-.113-.19-.14-.218-.113-.217-.083zm15.564.112h-2.122v-3.508h2.42l.273.028.244.028.245.056.2.085.164.083.163.112.137.114.107.14.084.14.08.168.055.17.027.196.027.225.028.224-.028.196-.027.224-.027.17-.054.196-.08.14-.084.168-.107.112-.137.14-.326.168-.19.085-.245.055-.244.03-.273.027-.3.03zm0-5.304h-3.946v10.777h1.824v-3.705h2.122l.544-.03.5-.056.463-.083.41-.14.38-.14.326-.197.3-.225.245-.224.217-.282.2-.308.137-.31.11-.365.082-.364.054-.393.027-.393-.027-.42-.054-.393-.082-.393-.11-.336-.136-.337-.164-.3-.217-.28-.272-.224-.272-.226-.355-.195-.353-.17-.435-.112-.463-.112-.5-.056h-.544zm-7.564 9.036h-.082l-.082.03-.08.027-.08.03h-.084l-.08.027h-.1l-.08.028h-.518l-.08.03-.3-.03-.27-.028-.245-.056-.218-.056-.2-.112-.19-.112-.136-.14-.136-.167-.136-.17-.083-.224-.08-.253-.054-.253-.027-.308-.028-.31v-.982l.055-.28.027-.253.08-.224.082-.225.08-.195.136-.17.137-.14.164-.14.216-.113.22-.084.244-.056.272-.028h.8l.11.028h.108l.082.03h.1l.08.027.08.03.055.027.08.028.056.03.055.027.054.028v4.686zm0-4.686v4.686-4.686zm0-1.768l-.11-.056-.082-.027-.082-.03h-.08l-.218-.056h-.082l-.108-.028h-.1l-.08-.028h-1.007l-.436.084-.38.113-.38.14-.354.196-.3.225-.3.252-.244.3-.218.307-.19.366-.135.392-.137.422-.08.42-.055.477v1.04l.055.504.08.478.11.422.163.42.2.365.22.337.27.31.3.25.326.226.382.196.407.14.436.085.5.084.543.027.1-.027h.517l.19-.028.2-.03h.218l.217-.027.245-.056.218-.03.217-.056.22-.056.218-.056.216-.085.22-.056v-10.41h-1.796v2.554zm-19.483 4.5v.224l-.03.225-.053.197-.082.196-.11.196-.11.197-.135.168-.163.17-.164.14-.19.11-.2.114-.2.083-.2.056-.22.028-.243.03-.1-.03h-.136l-.135-.028-.1-.027-.135-.03-.218-.11-.11-.057-.108-.056-.1-.056-.11-.084-.08-.084-.08-.085-.1-.084-.08-.084-.055.084-.082.084-.1.085-.08.084-.1.084-.08.056-.1.056-.108.057-.1.055-.135.056-.11.03-.108.027-.136.028H81.8l-.137.03-.217-.03-.218-.028-.217-.056-.19-.083-.19-.114-.163-.1-.163-.14-.163-.17-.137-.168-.11-.197-.108-.196-.08-.196-.056-.197-.054-.45.027-.253.027-.224.056-.225.08-.196.1-.196.108-.17.137-.167.163-.17.163-.14.163-.113.2-.1.192-.086.217-.056.218-.028h1.387v-1.207l.028-.253.026-.223.056-.225.08-.197.1-.196.108-.17.137-.166.163-.17.163-.14.163-.113.19-.1.19-.085.218-.056.216-.03h.463l.218.03.2.056.19.084.2.11.2.114.165.14.163.17.135.167.1.17.108.195.082.197.053.225.03.223v.506l-.03.14-.026.112-.027.14-.054.113-.055.112-.054.112-.056.114-.053.1-.082.085-.08.113-.082.083-.08.085-.1.084.1.057.08.1.164.17.082.112.053.112.056.112.054.113.055.112.054.113.027.14.026.112.03.14v.28zM84.912 73H78v7.128l.027.393.164.786.162.364.164.336.218.338.217.31.273.28.3.225.326.224.326.168.354.17.382.084.38.085.38.027h6.912v-7.548l-.08-.393-.082-.393-.163-.365-.164-.337-.218-.336-.218-.3-.272-.28-.3-.224-.324-.225-.328-.17-.354-.168-.76-.168h-.408zm0 2.6h-.246l-.108.056-.1.028-.108.055-.11.086-.082.055-.11.085-.053.112-.083.084-.053.11-.028.114-.054.14v.113l-.027.14v1.206h1.17l.136-.028h.108l.136-.056.11-.027.1-.058.08-.083.1-.056.082-.113.054-.084.08-.112.054-.112.028-.113.055-.113v-.505l-.055-.14-.028-.113-.054-.1-.08-.085-.055-.112-.082-.085-.1-.055-.08-.086-.1-.055-.11-.028-.136-.056h-.244zm0 3.312h-1.17v1.206l.027.112v.112l.054.14.028.112.053.113.083.083.053.112.1.085.08.056.11.084.11.056.11.028.108.056h.137l.11.03.136-.03h.108l.136-.056.11-.028.1-.056.08-.084.1-.056.082-.085.054-.112.08-.083.054-.113.028-.112.055-.14v-.505L86 79.736l-.028-.114-.054-.1-.08-.113-.055-.085-.082-.112-.1-.057-.08-.084-.1-.056-.11-.027-.136-.056h-.244zm-4.382 1.206l.028.112v.112l.054.14.027.112.055.113.08.083.055.112.082.085.11.056.08.084.1.056.108.028.137.056h.11l.108.03.137-.03h.136l.108-.056.11-.028.1-.056.107-.084.083-.056.108-.085.054-.112.083-.083.054-.113.027-.112.054-.14v-1.43h-1.388l-.136.056-.107.027-.1.056-.08.084-.11.057-.082.112-.055.085-.08.112-.056.11-.027.114-.054.112v.14l-.028.14z" fill="#fefefe"/></svg>