<svg xmlns="http://www.w3.org/2000/svg" width="72" height="72" fill="none" fill-rule="evenodd"><path d="M36 18h-7.4c-2 .1-3.2.4-4.4.8-1.2.4-2.3 1.2-3.2 2-1 1-1.6 2-2 3.2-.4 1-.7 2.5-.8 4.4v14.8c.1 2 .4 3.2.8 4.4A8.8 8.8 0 0 0 21 51a8.8 8.8 0 0 0 3.2 2.1c1 .4 2.5.8 4.4.8h14.8c2-.1 3.2-.4 4.4-.8A8.8 8.8 0 0 0 51 51a8.7 8.7 0 0 0 2.1-3.2c.4-1 .8-2.5.8-4.4V28.6c-.1-2-.4-3.2-.8-4.4A8.8 8.8 0 0 0 51 21a8.8 8.8 0 0 0-3.2-2.1c-1-.4-2.5-.7-4.4-.8H36zm0 3.2l7.3.1c1.8.1 2.7.4 3.3.6a5.6 5.6 0 0 1 2.1 1.3 5.6 5.6 0 0 1 1.3 2.1c.2.6.5 1.6.6 3.3v14.6c-.1 1.8-.4 2.7-.6 3.3-.3.8-.7 1.4-1.4 2s-1.2 1-2 1.3a10 10 0 0 1-3.4.6l-7.3.1c-4.8 0-5.4 0-7.3-.1-1.8-.1-2.7-.4-3.4-.6-1-.3-1.4-.7-2-1.4a5.5 5.5 0 0 1-1.3-2.1c-.2-.6-.5-1.6-.6-3.4V28.7c.1-1.8.4-2.7.6-3.4.3-1 .7-1.4 1.3-2s1.2-1 2-1.3a10 10 0 0 1 3.3-.6l7.4-.1zm0 5.5c-5 0-9.2 4-9.2 9.2a9.2 9.2 0 1 0 18.5 0c0-5-4-9.2-9.2-9.2zM36 42a6 6 0 1 1 0-12 6 6 0 1 1 0 12zm11.8-15.6a2.2 2.2 0 0 1-2.2 2.1 2.2 2.2 0 0 1-2.2-2.1 2.2 2.2 0 0 1 4.3 0z" fill="#fff" fill-rule="nonzero"/><rect stroke="#fff" stroke-width="2" width="64" height="64" rx="6" x="4" y="4"/></svg>