<svg xmlns="http://www.w3.org/2000/svg" viewBox="0 0 90 80"><g transform="translate(7 2)"><defs><filter id="A" filterUnits="userSpaceOnUse" x="3.9" y="3.1" width="64.8" height="64.3"><feColorMatrix values="1 0 0 0 0 0 1 0 0 0 0 0 1 0 0 0 0 0 1 0"/></filter></defs><mask maskUnits="userSpaceOnUse" x="3.9" y="3.1" width="64.8" height="64.3" id="B"><g filter="url(#A)"><path d="M53.3 40.9l-8.9 29.5H1L4.7 50l11.5-9.1 4.2-34.2L34.3.1h13l8.5 9.4-2.5 31.4z" fill="#fff"/></g></mask><g mask="url(#B)"><path d="M55.3 46.6h-3.8c-4.2 0-7.6-3.4-7.6-7.5v-2.4c1.7-2 2.9-4.3 3.6-6.8.1-.4.5-.6.8-.9 1.5-1.4 1.7-3.9.7-5.6-.1-.3-.4-.5-.4-.8V16c-.1-2.7-.8-5.4-2.7-7.4-1.5-1.6-3.6-2.5-5.8-3-2.8-.6-5.6-.6-8.3.1-2.3.6-4.5 1.9-5.9 4-1.2 1.8-1.7 3.9-1.8 6v6.8c0 .4-.3.8-.5 1.1-1 1.9-.6 4.4 1.1 5.7.4.3.5.8.6 1.3.7 2.2 1.9 4.3 3.4 6.1v2.5c0 4.2-3.4 7.5-7.6 7.5h-3.8S10.4 48.6 5.9 58v3.8a3.8 3.8 0 0 0 3.8 3.8h53.2a3.8 3.8 0 0 0 3.8-3.8V58c-4.5-9.5-11.4-11.4-11.4-11.4z" fill="none" stroke="#000" stroke-width="4"/></g></g><path d="M74.7 60.6v8.8c0 .4-.1.7-.4 1s-.6.4-1 .4H58.6c-.4 0-.7-.1-1-.4s-.4-.6-.4-1v-8.8c0-.4.1-.7.4-1s.6-.4 1-.4h.5v-2.9c0-1.9.7-3.5 2-4.8s2.9-2 4.8-2 3.5.7 4.8 2 2 2.9 2 4.8v2.9h.5c.4 0 .7.1 1 .4s.5.6.5 1zM62 59.2h7.8v-2.9c0-1.1-.4-2-1.1-2.8-.8-.8-1.7-1.1-2.8-1.1s-2 .4-2.8 1.1c-.8.8-1.1 1.7-1.1 2.8v2.9z"/></svg>