<svg xmlns="http://www.w3.org/2000/svg" viewBox="0 0 340.16 128.96"><path d="M30.83 84.1a14 14 0 1 0 28 0v-14h-14a14 14 0 0 0-14 14zm53.27-14h-14v14a14 14 0 1 0 14-14zm0-39.25a14 14 0 0 0-14 14v14h14a14 14 0 0 0 0-28zM84.1 0H0v84.1A44.85 44.85 0 0 0 44.85 129H129V44.85A44.85 44.85 0 0 0 84.11 0zm25.23 84.1a25.22 25.22 0 0 1-44.86 15.82 25.22 25.22 0 1 1-19.63-41.05h14v-14a25.23 25.23 0 1 1 41.08 19.61 25.16 25.16 0 0 1 9.41 19.62zm156.22-37.3a27.85 27.85 0 0 0-9.56-1.47c-15.52 0-24 10.8-24 26.4 0 17.4 8.06 27.57 25.68 27.57 3.88 0 13-.53 19.4-3.26V30.83h-11.5zm0 40.56a30.36 30.36 0 0 1-8.28 1.06c-10 0-13.63-4.72-13.63-16.15 0-10.37 2.63-16 13.2-16a20.89 20.89 0 0 1 8.7 1.57zm48.92-56.7H288.9v67.5h11.85V75h13.73c18.45 0 25.68-8.92 25.68-22.12s-7.16-22.2-25.68-22.2zm0 33.23h-13.73V41.78h13.73c10.38 0 13.73 4 13.73 11.1s-3.36 11.02-13.73 11.02zm-100.84-.74c6.18-3.15 8.9-7.55 8.9-14.26 0-10.8-6.6-18.24-24-18.24H173.8v67.5h26c17.1 0 24.85-9.33 24.85-19.92-.01-6.7-3.27-11.92-11.02-15.07zm-28-21.4h12.9c8.9 0 12 3.46 12 8.28s-3 8.5-12 8.5h-12.9zm14.15 45.28h-14.15V68.82h14.15c9.64 0 12.8 3.88 12.8 9.23s-3.25 9.02-12.8 9.02z" fill="#fff"/></svg>