<svg xmlns="http://www.w3.org/2000/svg" viewBox="0 0 581.1 82.29"><defs><style>.cls-1{fill:#fff;}</style></defs><title>Asset 1logo-bdp-big-white</title><g id="Layer_2" data-name="Layer 2"><g id="Capa_1" data-name="Capa 1"><path class="cls-1" d="M53.67,0H0V53.67A28.62,28.62,0,0,0,28.62,82.29H82.29V28.62A28.62,28.62,0,0,0,53.67,0Zm16.1,53.67a16.09,16.09,0,0,1-28.62,10.1,16.1,16.1,0,1,1-12.52-26.2h8.95V28.62a16.1,16.1,0,1,1,26.2,12.52A16.07,16.07,0,0,1,69.77,53.67Zm-16.1-8.95H44.72v8.95a8.95,8.95,0,1,0,8.94-8.95Zm-34,8.94a8.95,8.95,0,0,0,17.89,0V44.72H28.62A9,9,0,0,0,19.68,53.67Zm34-34a9,9,0,0,0-8.95,8.95v8.94h8.95a8.94,8.94,0,1,0,0-17.89Zm81.44,21.68c3.76-1.91,5.42-4.59,5.42-8.67,0-6.57-4-11.09-14.6-11.09h-15V62.65H126.7c10.39,0,15.11-5.67,15.11-12.11C141.81,46.46,139.83,43.27,135.11,41.36Zm-17-13h7.84c5.42,0,7.27,2.1,7.27,5s-1.85,5.16-7.27,5.16h-7.84Zm8.6,27.54h-8.6V44.8h8.6c5.86,0,7.78,2.36,7.78,5.61S132.5,55.89,126.7,55.89Zm31.82-25.37A37,37,0,0,0,148.44,32l1,6.38a24.68,24.68,0,0,1,8.73-1.47c4.15,0,6.63,1.08,6.63,4.27v2.36h-5.74c-7.78,0-12.88,2.61-12.88,9.88,0,6.82,4.4,9.94,13,9.94a40.52,40.52,0,0,0,12.56-2V41.93C171.77,33.45,166.17,30.52,158.52,30.52Zm6.31,26.2a25.12,25.12,0,0,1-5.87.64c-3.38,0-5.73-.57-5.73-4.21,0-3.06,1.78-4.27,5.8-4.27h5.8Zm61.48,0c-6.25,0-8.92-3.38-8.92-10.07,0-6.06,2.16-9.5,8.41-9.5a16.74,16.74,0,0,1,7.08,1.53L234,32a21.55,21.55,0,0,0-8.29-1.53c-10.26,0-15.36,6.76-15.36,16.51,0,10.71,6.12,16.32,15.62,16.32a28.78,28.78,0,0,0,8.67-1.47l-1.08-6.56A21.24,21.24,0,0,1,226.3,56.72Zm-34.22-26.2c-4.72,0-10.58.7-14,2V62.65h7V37.92a27.26,27.26,0,0,1,6.88-.77c3.89,0,6.5,1.27,6.5,6V62.65h6.95V43C205.4,34,200.5,30.52,192.08,30.52Zm298.4-2v34.1h7V37.79h10.84V31.16H497.49V28c0-3.76,2-4.91,5.16-4.91a16.58,16.58,0,0,1,5.86,1l1-6.56a24.78,24.78,0,0,0-7.33-1C495.45,16.5,490.48,19.17,490.48,28.54Zm-13.72,34.1h7V31.16h-7ZM516.4,17a4.27,4.27,0,1,0,4.27,4.27A4.27,4.27,0,0,0,516.4,17ZM477.14,27.14h5.36l6.5-8.67h-6.82Zm35.76,35.5h7V31.16h-7ZM541,56.72c-6.25,0-8.92-3.38-8.92-10.07,0-6.06,2.17-9.5,8.41-9.5a16.73,16.73,0,0,1,7.08,1.53L548.63,32a21.56,21.56,0,0,0-8.29-1.53C530.08,30.52,525,37.28,525,47c0,10.71,6.12,16.32,15.62,16.32a28.79,28.79,0,0,0,8.67-1.47l-1.08-6.56A21.26,21.26,0,0,1,541,56.72Zm25.52-26.2c-9.82,0-14.66,6.44-14.66,16.38,0,10.39,4.4,16.45,14.66,16.45,9.88,0,14.6-6.5,14.6-16.45C581.1,36.58,576.77,30.52,566.5,30.52Zm0,26.2c-6.18,0-7.59-3.83-7.59-9.82s1.4-9.75,7.59-9.75,7.59,3.76,7.59,9.75S572.75,56.72,566.5,56.72ZM251.82,30.52c-9.82,0-14.66,6.44-14.66,16.38,0,10.39,4.4,16.45,14.66,16.45,9.88,0,14.6-6.5,14.6-16.45C266.42,36.58,262.09,30.52,251.82,30.52Zm0,26.2c-6.18,0-7.59-3.83-7.59-9.82s1.4-9.75,7.59-9.75,7.59,3.76,7.59,9.75S258.07,56.72,251.82,56.72ZM361,56.59c-1.72,0-2.61-1-2.61-4.65V18.41h-7v35c0,7.07,3.82,9.82,8.86,9.82a10.86,10.86,0,0,0,4-.64l-1-6.44A6.07,6.07,0,0,1,361,56.59ZM332.58,30.52c-10.52,0-14.09,7.33-14.09,16.51,0,11.15,5.23,16.32,15.81,16.32a27.58,27.58,0,0,0,10.65-2l-1.08-6.63a25.55,25.55,0,0,1-9.5,2c-5.8,0-8.67-2.62-8.67-6.88v-.32h19.63a18.56,18.56,0,0,0,.64-5C346,35.3,341.32,30.52,332.58,30.52Zm6.7,13.26H325.7v-.32c0-4.72,2.49-6.82,6.69-6.82s6.89,2.3,6.89,6.82Zm-33-12.37a16.84,16.84,0,0,0-5.8-.89c-9.43,0-14.6,6.57-14.6,16.07,0,10.58,4.91,16.77,15.62,16.77,2.36,0,7.9-.32,11.79-2v-43h-7Zm0,24.67a18.49,18.49,0,0,1-5,.64c-6.06,0-8.29-2.87-8.29-9.82,0-6.31,1.59-9.75,8-9.75a12.64,12.64,0,0,1,5.29,1Zm92.82-34.49H383.59V62.65h7.2V48.56h8.35c11.22,0,15.62-5.42,15.62-13.45S410.43,21.59,399.14,21.59Zm0,20.21h-8.35V28.35h8.35c6.31,0,8.35,2.42,8.35,6.76S405.46,41.8,399.14,41.8Zm30.71-11.28A37,37,0,0,0,419.79,32l1,6.38a24.67,24.67,0,0,1,8.73-1.47c4.14,0,6.63,1.08,6.63,4.27v2.36h-5.73c-7.78,0-12.88,2.61-12.88,9.88,0,6.82,4.4,9.94,13,9.94a40.55,40.55,0,0,0,12.56-2V41.93C443.12,33.45,437.51,30.52,429.86,30.52Zm6.31,26.2a25.1,25.1,0,0,1-5.86.64c-3.38,0-5.74-.57-5.74-4.21,0-3.06,1.78-4.27,5.8-4.27h5.8Zm27.85,0c-6.25,0-8.92-3.38-8.92-10.07,0-6.06,2.17-9.5,8.42-9.5a16.71,16.71,0,0,1,7.07,1.53L471.66,32a21.52,21.52,0,0,0-8.29-1.53C453.11,30.52,448,37.28,448,47c0,10.71,6.12,16.32,15.62,16.32a28.79,28.79,0,0,0,8.67-1.47l-1.08-6.56A21.25,21.25,0,0,1,464,56.72Z"/></g></g></svg>