<svg xmlns="http://www.w3.org/2000/svg" viewBox="0 0 49 49" fill="#fff" fill-rule="evenodd"><path d="M24.5 36.5A14 14 0 0 1 14.28 32a2.77 2.77 0 0 1 0-3.74 2.44 2.44 0 0 1 1.72-.78c.64 0 1.27 2.14 1.76 2.65a9.07 9.07 0 0 0 13.39 0c1-1 2.55-2.9 3.52-1.88a2.77 2.77 0 0 1 0 3.74 14 14 0 0 1-10.17 4.5zm-4.57-16.57a3.12 3.12 0 1 0-2.21.92 3.14 3.14 0 0 0 2.21-.92zm11.35-5.33a3.13 3.13 0 1 0 2.21.92 3.14 3.14 0 0 0-2.21-.92zM24.5 2.36A22.14 22.14 0 1 0 46.64 24.5 22.17 22.17 0 0 0 24.5 2.36zm0 46.64A24.5 24.5 0 1 1 49 24.5 24.52 24.52 0 0 1 24.5 49z"/></svg>