<svg xmlns="http://www.w3.org/2000/svg" viewBox="0 0 47 47" fill="#fff" fill-rule="evenodd"><path d="M23.5 2.3a21.2 21.2 0 1 0 21.2 21.2A21.3 21.3 0 0 0 23.5 2.3zm0 44.7A23.5 23.5 0 1 1 47 23.5 23.5 23.5 0 0 1 23.5 47zm0-10a7.5 7.5 0 0 1-7.7-7.3 1.1 1.1 0 1 1 2.3 0 5.3 5.3 0 0 0 5.5 5 5.3 5.3 0 0 0 5.5-5 5.3 5.3 0 0 0-5.5-5 7.5 7.5 0 0 1-7.7-7.3 7.5 7.5 0 0 1 7.7-7.4 8 8 0 0 1 5.9 2.6 1.1 1.1 0 0 1-1.7 1.5 5.7 5.7 0 0 0-4.2-1.8 5.3 5.3 0 0 0-5.5 5 5.3 5.3 0 0 0 5.5 5 7.5 7.5 0 0 1 7.7 7.3 7.5 7.5 0 0 1-7.7 7.5z"/><path d="M23.3 40.3a1.1 1.1 0 0 1-1.1-1.1V7.8a1.1 1.1 0 1 1 2.3 0v31.4a1.1 1.1 0 0 1-1.1 1.1z"/></svg>