<svg xmlns="http://www.w3.org/2000/svg" width="72" height="72" fill="none" fill-rule="evenodd"><path d="M54 24.7c-1.3.6-2.8 1-4.2 1.2 1.5-1 2.7-2.5 3.2-4.3a14.3 14.3 0 0 1-4.7 1.9C47 22 45 21 43 21c-4 0-7.4 3.5-7.4 7.8a8.2 8.2 0 0 0 .2 1.8c-6-.3-11.6-3.4-15.2-8.2a8.2 8.2 0 0 0-1 3.9c0 2.7 1.3 5 3.3 6.5a7.1 7.1 0 0 1-3.3-1v.1c0 3.8 2.5 7 6 7.7a6.8 6.8 0 0 1-1.9.3c-.5 0-1 0-1.4-.1 1 3 3.7 5.4 7 5.4-2.5 2-5.7 3.4-9.2 3.4a13.9 13.9 0 0 1-1.8-.1A20 20 0 0 0 29.3 52c13.6 0 21-12 21-22.3a26 26 0 0 0 0-1c1.5-1 2.7-2.5 3.7-4z" fill="#fff" fill-rule="nonzero"/><rect stroke="#fff" stroke-width="2" width="64" height="64" rx="6" x="4" y="4"/></svg>