<svg xmlns="http://www.w3.org/2000/svg" width="509" height="118" viewBox="0 0 5292 1222" shape-rendering="geometricPrecision" text-rendering="geometricPrecision" image-rendering="optimizeQuality" fill-rule="evenodd"><style><![CDATA[.C{fill-rule:nonzero}]]></style><g fill="#fff"><path d="M178 834c-73 0-150-45-150-130 0-12 1-25 5-40l119-544c9-46 41-69 73-69 37 0 73 28 73 78 0 8-1 15-3 23L175 672c-2 7-3 13-3 18 0 9 4 15 8 16 13 5 29-14 42-37l300-554c19-44 54-63 83-63 30 0 55 19 55 56 0 15-4 33-15 53L335 728c-46 83-106 107-158 107z" class="C"/><path d="M693 148c0-41 33-73 73-73s73 33 73 73c0 42-33 74-73 74-40 1-73-33-73-74zm-50 549c0 18 14 31 34 31 36 0 83-37 125-154 11-28 35-41 59-41 27 0 53 18 53 45 0 6-1 11-3 16-63 187-159 240-246 240-82 0-152-48-152-133 0-15 7-40 13-58l95-276c14-42 44-62 72-62 30 0 60 20 60 60 0 9-5 21-8 33l-99 283c-2 6-3 9-3 14z"/><path d="M1322 529c28 0 55 18 55 47 0 5 0 9-2 14-28 93-93 151-180 151-47 0-87-18-111-46l-33 41c-59 69-88 98-152 98-70 0-121-48-121-128 0-14 2-31 5-46l65-293c9-39 41-59 73-59 31 0 61 20 61 64 0 8-1 18-4 27l-67 288c-3 9-4 19-4 26 0 6 2 8 5 8 13 0 43-37 56-57l49-74c-7-18-11-38-11-59 0-96 65-224 155-224 49 0 74 31 74 74 0 49-31 97-79 186-3 8-5 18-5 24 0 24 15 44 45 44 33 0 55-24 71-67 9-27 31-38 54-38z" class="C"/><path d="M1439 456l-18 54c13 7 29 11 46 11 27 0 53-11 63-41 3-8 4-14 4-21 0-26-16-46-42-46-20 0-42 16-53 44zm310 83c27 0 52 15 52 44 0 6-1 12-4 18-59 172-200 233-324 233-131 0-230-67-230-174 0-20 5-42 12-64l53-154c31-90 110-137 189-137 100 0 169 66 169 151 0 15-3 33-7 49-24 81-96 133-177 133-36 0-68-11-94-27l-8 18c-4 9-5 18-5 25 0 42 41 73 106 73 77 0 169-42 209-147 7-28 35-42 60-42zm703-301c0-44-27-67-63-67s-73 18-89 67l-62 183c-3 7-4 13-4 19 0 41 32 71 72 71 35 0 68-23 84-69l54-161c6-18 8-33 8-44zm154-27c0 20-5 44-13 66l-71 200c-40 114-135 168-222 168-50 0-96-19-127-48l-60 177c-14 42-45 60-75 60-36 0-68-24-68-64 0-9 3-18 6-30l225-652c16-46 49-63 81-63s62 20 64 49c22-16 54-21 79-21 99 0 181 55 181 159zm188 257c0-31-18-47-36-47-14 0-40 7-56 62l-57 181c-3 8-5 18-5 31 0 20 9 33 29 33 18 0 53-14 72-72l43-134c7-23 10-41 10-54zm333 109c0 16-9 39-22 73-57 146-157 184-230 184-27 0-90-8-119-48-33 30-77 48-118 48-78 0-138-61-138-137 0-16 4-32 9-48l84-242c24-69 88-101 147-101 45 0 80 14 99 25 14-22 41-34 65-34 33 0 65 20 65 60 0 9-2 19-5 30l-100 291c-3 9-5 19-5 26 0 14 9 22 24 22 41 0 97-37 132-148 11-34 39-49 64-49 25 1 48 17 48 47z"/><path d="M3473 530c28 0 55 18 55 46 0 6-1 12-4 18-57 164-188 239-320 239s-221-74-221-178c0-19 4-42 11-63l51-151c32-95 108-137 179-137 77 0 147 48 147 133 0 20-4 42-13 67-16 41-44 57-70 57-31 0-61-24-61-56 0-9 3-18 7-27 7-13 9-23 9-33 0-15-9-26-27-26-14 0-32 14-41 35l-53 155c-4 12-6 22-6 32 0 45 40 82 100 82 68 0 155-44 200-160 11-25 33-35 55-35z" class="C"/><path d="M3714 45c49 0 83 37 56 60l-155 136c-19 18-45 21-66 21-33 0-52-18-23-50l117-138c18-21 45-30 71-30zm-211 652c0 18 14 31 34 31 36 0 83-37 125-154 11-28 35-41 59-41 27 0 53 18 53 45 0 6-1 11-3 16-63 187-159 240-246 240-82 0-152-48-152-133 0-15 7-40 13-58l95-276c14-42 44-62 72-62 30 0 60 20 60 60 0 9-5 21-8 33l-98 283c-3 6-4 9-4 14z"/><path d="M3702 413c-28 0-45-21-45-47 0-29 23-60 78-60h23l54-155c35-94 110-137 186-137 77 0 138 59 138 138 0 12-2 23-5 36-9 45-40 62-68 62-31 0-62-21-62-53 0-8 2-16 6-25 2-7 3-12 3-18 0-15-7-26-26-26-15 0-32 14-40 35l-50 141h53c33 0 52 23 52 48 0 26-19 57-62 58l-82 2-247 708c-14 42-43 59-71 59-33 0-64-24-64-62 0-9 2-18 6-29l239-677h-18z" class="C"/><path d="M4173 148c0-41 33-73 73-73s73 33 73 73c0 42-33 74-73 74s-73-33-73-74zm-51 549c0 18 14 31 34 31 36 0 83-37 125-154 11-28 35-41 59-41 27 0 53 18 53 45 0 6-1 11-3 16-63 187-159 240-246 240-82 0-152-48-152-133 0-15 7-40 13-58l95-276c14-42 44-62 72-62 30 0 60 20 60 60 0 9-5 21-8 33l-98 283c-2 6-4 9-4 14z"/><path d="M4739 530c28 0 55 18 55 46 0 6-1 12-4 18-57 164-188 239-320 239s-221-74-221-178c0-19 4-42 11-63l51-152c32-95 108-136 179-136 77 0 146 48 146 133 0 20-4 42-13 67-16 41-44 58-70 58-31 0-61-24-61-56 0-9 3-19 8-27 6-13 9-23 9-33 0-15-9-26-27-26-14 0-32 14-40 35l-54 156c-4 12-5 22-5 32 0 45 40 82 100 82 68 0 155-44 200-160 11-25 33-35 56-35z" class="C"/><path d="M4958 451c0-20-18-40-45-40-28 0-59 18-70 46l-64 183c-4 9-8 25-8 42 0 21 9 44 44 44 28 0 53-15 65-47-18-14-32-31-33-61 0-54 44-95 93-89 1-8 4-14 6-22 6-18 11-39 11-56zm84 196c53 0 94-39 113-95 9-33 35-47 59-47 26 0 50 19 50 52 0 8-2 18-5 27-30 95-113 170-218 170-18 0-38-3-53-7-38 65-100 87-170 87-91 0-171-57-171-151 0-19 4-42 12-65l65-186c28-80 108-127 192-127 97 0 171 61 171 153 0 36-27 114-42 137-5 8-12 15-18 20 3 17 4 31 4 31 4 2 8 2 12 2z"/><path d="M3985 612c45-16 88-37 127-65 11-8 23-17 36-27 26-20-41-115-47-79-1 7-18-1-24 11-6 10-25 30-33 37-14 14-30 26-46 38-32 22-65 39-102 52-6 2-18 8-18 17 0 8 13 14 18 17 28 9 63 8 89-1z" class="C"/><path d="M4110 440s0 1-1 3c-1 8-9 8-14 9-6 0-9 1-11 5-8 14-34 39-34 39-14 14-29 26-47 38-32 23-66 40-104 53-7 3-14 8-14 10s4 6 14 10c24 9 57 9 85 0 46-16 88-37 126-64l4-3c10-7 21-15 32-24 6-5 5-17-2-33-10-24-29-44-34-44zm-169 187c-17 0-32-3-45-7-15-6-23-13-23-22 0-14 18-20 23-22 37-13 69-29 100-51 18-12 32-24 45-37 9-9 28-28 32-36 6-10 16-10 21-11h3c2-9 8-11 11-12 17-2 38 29 47 52 9 22 8 38-2 46-11 9-23 18-32 24l-4 3c-38 28-82 50-129 66-15 6-31 8-48 8z"/><path d="M5060 562l-34 92-78-50 62-77z" class="C"/></g></svg>